<svg xmlns="http://www.w3.org/2000/svg" viewBox="0 0 1000 500" width="1000" height="500">
  <rect width="1000" height="500" fill="#050816"/>

  <!-- Grid -->
  <g opacity="0.03">
    <line x1="0" y1="100" x2="1000" y2="100" stroke="#2BF0FF" stroke-width="0.5"/>
    <line x1="0" y1="200" x2="1000" y2="200" stroke="#2BF0FF" stroke-width="0.5"/>
    <line x1="0" y1="300" x2="1000" y2="300" stroke="#2BF0FF" stroke-width="0.5"/>
    <line x1="0" y1="400" x2="1000" y2="400" stroke="#2BF0FF" stroke-width="0.5"/>
    <line x1="100" y1="0" x2="100" y2="500" stroke="#2BF0FF" stroke-width="0.5"/>
    <line x1="200" y1="0" x2="200" y2="500" stroke="#2BF0FF" stroke-width="0.5"/>
    <line x1="300" y1="0" x2="300" y2="500" stroke="#2BF0FF" stroke-width="0.5"/>
    <line x1="400" y1="0" x2="400" y2="500" stroke="#2BF0FF" stroke-width="0.5"/>
    <line x1="500" y1="0" x2="500" y2="500" stroke="#2BF0FF" stroke-width="0.5"/>
    <line x1="600" y1="0" x2="600" y2="500" stroke="#2BF0FF" stroke-width="0.5"/>
    <line x1="700" y1="0" x2="700" y2="500" stroke="#2BF0FF" stroke-width="0.5"/>
    <line x1="800" y1="0" x2="800" y2="500" stroke="#2BF0FF" stroke-width="0.5"/>
    <line x1="900" y1="0" x2="900" y2="500" stroke="#2BF0FF" stroke-width="0.5"/>
  </g>

  <!-- North America - using proper map coordinates -->
  <path d="M 150 60 L 160 55 L 180 50 L 200 48 L 220 52 L 240 58 L 260 65 L 280 75 L 290 90 L 285 110 L 275 130 L 260 145 L 240 155 L 220 160 L 200 158 L 180 150 L 165 140 L 150 125 L 140 110 L 135 95 L 140 80 Z" 
        fill="none" stroke="#2BF0FF" stroke-width="0.8" opacity="0.5"/>
  
  <!-- USA lower 48 -->
  <path d="M 140 110 L 155 115 L 170 120 L 185 125 L 200 128 L 215 130 L 230 135 L 245 145 L 255 160 L 260 175 L 255 190 L 245 200 L 230 205 L 215 200 L 200 195 L 185 185 L 170 175 L 155 165 L 145 150 L 138 135 L 135 120 Z" 
        fill="none" stroke="#2BF0FF" stroke-width="0.6" opacity="0.4"/>

  <!-- Mexico -->
  <path d="M 155 165 L 170 175 L 180 190 L 188 205 L 192 220 L 190 235 L 185 245 L 178 250 L 170 245 L 162 235 L 155 220 L 150 205 L 148 190 L 150 175 Z" 
        fill="none" stroke="#2BF0FF" stroke-width="0.6" opacity="0.4"/>

  <!-- South America -->
  <path d="M 230 250 L 250 245 L 270 248 L 290 260 L 305 280 L 315 305 L 320 335 L 318 365 L 310 390 L 295 410 L 275 420 L 255 415 L 240 400 L 228 375 L 222 345 L 220 315 L 222 285 L 225 265 Z" 
        fill="none" stroke="#2BF0FF" stroke-width="0.8" opacity="0.5"/>

  <!-- Europe -->
  <path d="M 460 85 L 475 80 L 490 82 L 505 88 L 515 100 L 520 115 L 515 130 L 505 140 L 490 142 L 475 138 L 460 130 L 450 118 L 445 105 L 450 92 Z" 
        fill="none" stroke="#2BF0FF" stroke-width="0.8" opacity="0.5"/>

  <!-- UK -->
  <path d="M 435 88 L 445 85 L 452 92 L 450 102 L 442 105 L 435 98 Z" 
        fill="none" stroke="#2BF0FF" stroke-width="0.5" opacity="0.35"/>

  <!-- Italy -->
  <path d="M 490 142 L 495 155 L 500 170 L 498 185 L 492 195 L 485 190 L 480 175 L 482 158 Z" 
        fill="none" stroke="#2BF0FF" stroke-width="0.5" opacity="0.35"/>

  <!-- Scandinavia -->
  <path d="M 475 65 L 485 55 L 495 52 L 505 58 L 510 70 L 505 82 L 495 85 L 485 80 L 478 72 Z" 
        fill="none" stroke="#2BF0FF" stroke-width="0.5" opacity="0.35"/>

  <!-- Spain/Portugal -->
  <path d="M 445 125 L 455 122 L 465 128 L 468 138 L 460 145 L 450 142 L 442 135 Z" 
        fill="none" stroke="#2BF0FF" stroke-width="0.5" opacity="0.35"/>

  <!-- Africa -->
  <path d="M 460 165 L 480 160 L 505 162 L 530 172 L 550 190 L 565 215 L 575 245 L 580 280 L 578 315 L 570 345 L 555 370 L 535 385 L 510 390 L 485 385 L 465 370 L 450 345 L 440 315 L 438 285 L 442 255 L 448 225 L 452 195 Z" 
        fill="none" stroke="#2BF0FF" stroke-width="0.8" opacity="0.5"/>

  <!-- Madagascar -->
  <path d="M 585 295 L 592 290 L 598 305 L 595 325 L 588 330 L 582 315 Z" 
        fill="none" stroke="#2BF0FF" stroke-width="0.5" opacity="0.35"/>

  <!-- Middle East -->
  <path d="M 520 155 L 540 150 L 560 158 L 580 175 L 592 195 L 595 215 L 585 225 L 565 220 L 545 210 L 525 195 L 512 178 L 515 165 Z" 
        fill="none" stroke="#2BF0FF" stroke-width="0.6" opacity="0.4"/>

  <!-- India -->
  <path d="M 620 185 L 640 180 L 658 195 L 668 215 L 672 240 L 668 260 L 658 275 L 645 280 L 632 272 L 622 255 L 615 235 L 612 215 L 615 198 Z" 
        fill="none" stroke="#2BF0FF" stroke-width="0.6" opacity="0.4"/>

  <!-- China -->
  <path d="M 660 140 L 700 135 L 735 145 L 760 165 L 772 190 L 775 220 L 768 245 L 752 262 L 730 270 L 705 265 L 682 252 L 665 232 L 655 208 L 652 185 L 655 162 Z" 
        fill="none" stroke="#2BF0FF" stroke-width="0.6" opacity="0.4"/>

  <!-- Japan -->
  <path d="M 785 155 L 795 150 L 802 162 L 798 178 L 790 182 L 784 170 Z" 
        fill="none" stroke="#2BF0FF" stroke-width="0.5" opacity="0.35"/>

  <!-- Southeast Asia -->
  <path d="M 680 250 L 705 245 L 725 255 L 742 275 L 752 298 L 748 318 L 735 328 L 718 322 L 702 308 L 690 290 L 682 272 Z" 
        fill="none" stroke="#2BF0FF" stroke-width="0.5" opacity="0.35"/>

  <!-- Russia / Siberia -->
  <path d="M 520 55 L 580 45 L 650 38 L 720 42 L 780 55 L 830 75 L 865 100 L 882 130 L 885 155 L 875 170 L 855 162 L 825 145 L 790 125 L 750 108 L 705 95 L 655 85 L 600 78 L 545 72 L 515 68 Z" 
        fill="none" stroke="#2BF0FF" stroke-width="0.6" opacity="0.4"/>

  <!-- Central Asia -->
  <path d="M 580 100 L 620 95 L 660 105 L 690 125 L 705 150 L 698 172 L 675 180 L 645 175 L 615 162 L 590 145 L 575 125 Z" 
        fill="none" stroke="#2BF0FF" stroke-width="0.5" opacity="0.35"/>

  <!-- Australia -->
  <path d="M 750 310 L 790 305 L 825 312 L 850 330 L 865 358 L 868 390 L 860 418 L 842 438 L 818 448 L 790 450 L 762 445 L 740 430 L 725 408 L 718 380 L 718 352 L 725 330 L 735 316 Z" 
        fill="none" stroke="#2BF0FF" stroke-width="0.8" opacity="0.5"/>

  <!-- New Zealand -->
  <path d="M 875 395 L 885 392 L 892 405 L 888 420 L 880 418 L 874 408 Z" 
        fill="none" stroke="#2BF0FF" stroke-width="0.5" opacity="0.35"/>

  <!-- Indonesia / Papua -->
  <path d="M 720 275 L 760 270 L 795 278 L 815 295 L 822 315 L 812 328 L 785 322 L 755 312 L 730 298 L 718 285 Z" 
        fill="none" stroke="#2BF0FF" stroke-width="0.5" opacity="0.35"/>

  <!-- Greenland -->
  <path d="M 330 35 L 370 28 L 400 35 L 418 52 L 425 72 L 415 88 L 392 95 L 365 90 L 342 78 L 328 60 L 325 45 Z" 
        fill="none" stroke="#2BF0FF" stroke-width="0.6" opacity="0.4"/>

  <!-- Antarctica -->
  <path d="M 200 465 L 350 460 L 500 462 L 650 460 L 800 462 L 900 465 L 900 475 L 800 480 L 650 482 L 500 480 L 350 478 L 200 475 Z" 
        fill="none" stroke="#2BF0FF" stroke-width="0.5" opacity="0.25"/>

  <!-- Philippines -->
  <path d="M 740 220 L 748 218 L 752 228 L 745 238 L 738 232 Z" 
        fill="none" stroke="#2BF0FF" stroke-width="0.4" opacity="0.3"/>

  <!-- Taiwan -->
  <path d="M 755 195 L 762 193 L 765 200 L 758 205 L 753 202 Z" 
        fill="none" stroke="#2BF0FF" stroke-width="0.4" opacity="0.3"/>

  <!-- Sri Lanka -->
  <path d="M 635 265 L 642 263 L 645 270 L 640 275 L 634 272 Z" 
        fill="none" stroke="#2BF0FF" stroke-width="0.4" opacity="0.3"/>

  <!-- Blockchain nodes on major cities -->
  <circle cx="180" cy="115" r="4" fill="none" stroke="#2BF0FF" stroke-width="1.2" opacity="0.8"/>
  <circle cx="245" cy="170" r="4" fill="none" stroke="#2BF0FF" stroke-width="1.2" opacity="0.8"/>
  <circle cx="280" cy="330" r="4" fill="none" stroke="#2BF0FF" stroke-width="1.2" opacity="0.8"/>
  <circle cx="485" cy="105" r="4" fill="none" stroke="#2BF0FF" stroke-width="1.2" opacity="0.8"/>
  <circle cx="510" cy="260" r="4" fill="none" stroke="#2BF0FF" stroke-width="1.2" opacity="0.8"/>
  <circle cx="645" cy="225" r="4" fill="none" stroke="#2BF0FF" stroke-width="1.2" opacity="0.8"/>
  <circle cx="715" cy="195" r="4" fill="none" stroke="#2BF0FF" stroke-width="1.2" opacity="0.8"/>
  <circle cx="790" cy="165" r="4" fill="none" stroke="#2BF0FF" stroke-width="1.2" opacity="0.8"/>
  <circle cx="800" cy="380" r="4" fill="none" stroke="#2BF0FF" stroke-width="1.2" opacity="0.8"/>
  <circle cx="555" cy="155" r="4" fill="none" stroke="#2BF0FF" stroke-width="1.2" opacity="0.8"/>

  <!-- Connection lines between nodes -->
  <line x1="180" y1="115" x2="485" y2="105" stroke="#2BF0FF" stroke-width="0.6" opacity="0.3"/>
  <line x1="485" y1="105" x2="645" y2="225" stroke="#2BF0FF" stroke-width="0.6" opacity="0.3"/>
  <line x1="645" y1="225" x2="715" y2="195" stroke="#2BF0FF" stroke-width="0.6" opacity="0.3"/>
  <line x1="715" y1="195" x2="790" y2="165" stroke="#2BF0FF" stroke-width="0.6" opacity="0.3"/>
  <line x1="180" y1="115" x2="245" y2="170" stroke="#2BF0FF" stroke-width="0.6" opacity="0.25"/>
  <line x1="245" y1="170" x2="280" y2="330" stroke="#2BF0FF" stroke-width="0.6" opacity="0.25"/>
  <line x1="485" y1="105" x2="510" y2="260" stroke="#2BF0FF" stroke-width="0.6" opacity="0.25"/>
  <line x1="510" y1="260" x2="645" y2="225" stroke="#2BF0FF" stroke-width="0.6" opacity="0.25"/>
  <line x1="645" y1="225" x2="800" y2="380" stroke="#2BF0FF" stroke-width="0.6" opacity="0.25"/>
  <line x1="715" y1="195" x2="800" y2="380" stroke="#2BF0FF" stroke-width="0.6" opacity="0.25"/>
  <line x1="555" y1="155" x2="645" y2="225" stroke="#2BF0FF" stroke-width="0.6" opacity="0.25"/>
  <line x1="555" y1="155" x2="715" y2="195" stroke="#2BF0FF" stroke-width="0.6" opacity="0.25"/>

  <!-- Small data nodes -->
  <circle cx="130" cy="140" r="2.5" fill="none" stroke="#2BF0FF" stroke-width="0.8" opacity="0.5"/>
  <circle cx="350" cy="200" r="2.5" fill="none" stroke="#2BF0FF" stroke-width="0.8" opacity="0.5"/>
  <circle cx="560" cy="120" r="2.5" fill="none" stroke="#2BF0FF" stroke-width="0.8" opacity="0.5"/>
  <circle cx="830" cy="180" r="2.5" fill="none" stroke="#2BF0FF" stroke-width="0.8" opacity="0.5"/>
  <circle cx="690" cy="290" r="2.5" fill="none" stroke="#2BF0FF" stroke-width="0.8" opacity="0.5"/>
  <circle cx="320" cy="70" r="2.5" fill="none" stroke="#2BF0FF" stroke-width="0.8" opacity="0.5"/>

  <!-- Scan lines -->
  <line x1="80" y1="150" x2="150" y2="150" stroke="#2BF0FF" stroke-width="0.5" opacity="0.15" stroke-dasharray="6 3"/>
  <line x1="80" y1="350" x2="150" y2="350" stroke="#2BF0FF" stroke-width="0.5" opacity="0.15" stroke-dasharray="6 3"/>
  <line x1="850" y1="130" x2="920" y2="130" stroke="#2BF0FF" stroke-width="0.5" opacity="0.15" stroke-dasharray="6 3"/>
  <line x1="850" y1="380" x2="920" y2="380" stroke="#2BF0FF" stroke-width="0.5" opacity="0.15" stroke-dasharray="6 3"/>

  <!-- Corner brackets -->
  <path d="M 120 50 L 120 35 L 135 35" fill="none" stroke="#2BF0FF" stroke-width="1" opacity="0.4"/>
  <path d="M 865 35 L 880 35 L 880 50" fill="none" stroke="#2BF0FF" stroke-width="1" opacity="0.4"/>
  <path d="M 120 450 L 120 465 L 135 465" fill="none" stroke="#2BF0FF" stroke-width="1" opacity="0.4"/>
  <path d="M 865 465 L 880 465 L 880 450" fill="none" stroke="#2BF0FF" stroke-width="1" opacity="0.4"/>

  <!-- Horizontal scan line -->
  <line x1="0" y1="250" x2="1000" y2="250" stroke="#2BF0FF" stroke-width="0.3" opacity="0.06"/>
</svg>